<?xml version="1.0" encoding="UTF-8" standalone="no"?>
<!-- Created with Inkscape (http://www.inkscape.org/) -->

<svg
   width="210mm"
   height="297mm"
   viewBox="0 0 210 297"
   version="1.1"
   id="svg1"
   xml:space="preserve"
   xmlns="http://www.w3.org/2000/svg"
   xmlns:svg="http://www.w3.org/2000/svg"><defs
     id="defs1" /><g
     id="layer1"><path
       d="m 105.31192,2.7615885 c -28.653477,0 -52.825421,9.5246165 -72.515472,28.5734495 C 13.106397,50.383872 3.2612996,73.768537 3.2612996,101.4889 v 101.25686 c 0,27.72036 9.8450974,51.10503 29.5351484,70.15386 19.690051,19.04884 43.861995,28.57345 72.515472,28.57345 28.65347,0 52.8249,-9.52461 72.51495,-28.57345 19.69005,-19.04883 29.53515,-42.4335 29.53515,-70.15386 V 101.4889 c 0,-27.720363 -9.8451,-51.105028 -29.53515,-70.153862 C 158.13682,12.286205 133.96539,2.7615885 105.31192,2.7615885 Z M 98.772266,15.29209 v 86.19681 h -82.42701 c 0,-22.847086 7.948393,-42.540598 23.845572,-59.080119 C 56.085173,25.86926 75.612502,16.830586 98.772266,15.29209 Z m 13.079304,0 c 23.15976,1.538496 42.68658,10.57717 58.58092,27.116691 15.89718,16.539521 23.84609,36.233033 23.84609,59.080119 H 111.85157 Z M 16.345256,114.14652 H 194.27858 v 88.59924 c 0,23.81242 -8.70531,44.11088 -26.11623,60.89448 -17.41377,16.78359 -38.40973,25.17521 -62.98686,25.17521 -24.577127,0 -45.525559,-8.39162 -62.845774,-25.17521 -17.32305,-16.7836 -25.98446,-37.08206 -25.98446,-60.89448 z"
       style="opacity:0.75;fill:#ff1694;fill-opacity:1"
       id="path10" /><path
       d="M 98.772266,15.29209 C 75.612502,16.830586 56.085173,25.86926 40.190828,42.408781 24.293649,58.948302 16.345256,78.641814 16.345256,101.4889 h 82.42701 z"
       style="opacity:0.75;fill:#6416ff;fill-opacity:1"
       id="path9" /><path
       d="m 111.85157,15.29209 v 86.19681 h 82.42701 c 0,-22.847086 -7.94891,-42.540598 -23.84609,-59.080119 C 154.53815,25.86926 135.01133,16.830586 111.85157,15.29209 Z"
       style="opacity:0.75;fill:#6416ff;fill-opacity:1"
       id="path8" /></g></svg>
